<svg width="358" height="492" viewBox="0 0 358 492" fill="none" xmlns="http://www.w3.org/2000/svg">
<g clip-path="url(#clip0_6_44)">
<path d="M287.132 169.997H251.813V156.635C251.813 134.239 267.639 116.056 287.132 116.056L287.132 169.997Z" fill="black"/>
<path d="M279.303 145.054L285.376 176.435L249.791 169.646L264.292 139.967L279.303 145.054Z" fill="#FFD9B6"/>
<path opacity="0.1" d="M279.303 145.054L285.376 176.435L249.791 169.646L264.292 139.967L279.303 145.054Z" fill="black"/>
<path d="M245.186 270.104H279.303V212.091H245.186V270.104Z" fill="#FFD9B6"/>
<path d="M301.479 317.534L293.973 363.788C293.973 363.788 298.75 395.93 284.421 428.856L274.868 462.567L260.539 460.215C260.539 460.215 269.409 435.128 269.409 424.152C269.409 413.177 271.456 370.843 271.456 370.843L270.433 322.537L301.479 317.534Z" fill="black"/>
<path d="M258.492 459.431C258.492 459.431 274.868 452.375 276.233 462.566L275.55 467.27C275.55 467.27 281.691 488.437 272.821 490.005C263.951 491.573 255.763 493.925 255.08 489.221C254.398 484.517 254.409 478.646 256.109 474.526C257.81 470.406 258.492 459.431 258.492 459.431Z" fill="black"/>
<path d="M249.826 310.359L245.839 357.186C245.839 357.186 233.471 386.534 239.265 422.74L240.281 458.173L254.614 460.492C254.614 460.492 252.166 433.561 254.823 423.019C257.479 412.476 265.76 371.158 265.76 371.158L278.436 325.085L249.826 310.359Z" fill="black"/>
<path d="M256.77 460.393C256.77 460.393 242.748 448.384 238.97 457.737L238.487 462.473C238.487 462.473 227.464 480.843 235.605 485.183C243.746 489.524 251.042 494.399 252.836 490.099C254.63 485.799 256.041 480.155 255.405 475.655C254.769 471.154 256.77 460.393 256.77 460.393Z" fill="black"/>
<path d="M293.291 243.45C309.339 260.656 310.529 287.879 301.138 320.278C301.138 320.278 271.115 343.797 249.28 314.006L238.363 253.641L293.291 243.45Z" fill="black"/>
<path d="M266.339 159.566L283.397 162.702L282.032 212.091L301.138 255.993L276.574 270.104C276.574 270.104 257.468 228.554 254.057 202.684C250.645 176.813 252.692 157.998 252.692 157.998L266.339 159.566Z" fill="#1877F2"/>
<path d="M253.374 161.134L236.316 164.27L237.681 213.659L233.587 259.129L243.139 271.672C243.139 271.672 262.245 230.122 265.656 204.252C269.068 178.381 267.021 159.566 267.021 159.566L253.374 161.134Z" fill="#1877F2"/>
<path d="M273.844 162.31L277.597 161.134C277.597 161.134 290.903 159.174 292.95 165.446C294.997 171.717 294.314 208.563 294.314 208.563C294.314 208.563 297.835 253.786 284.134 254.302C270.433 254.817 273.162 217.187 273.162 217.187L273.844 162.31Z" fill="#1877F2"/>
<path d="M273.349 153.666C283.102 153.666 291.008 144.582 291.008 133.376C291.008 122.17 283.102 113.086 273.349 113.086C263.595 113.086 255.689 122.17 255.689 133.376C255.689 144.582 263.595 153.666 273.349 153.666Z" fill="#FFD9B6"/>
<path d="M251.327 163.878L247.575 162.702C247.575 162.702 234.269 160.742 232.222 167.014C230.175 173.285 230.857 210.131 230.857 210.131C230.857 210.131 227.336 255.354 241.038 255.87C254.739 256.385 252.01 218.755 252.01 218.755L251.327 163.878Z" fill="#1877F2"/>
<path d="M263.147 161.3C259.359 160.196 255.064 164.845 253.553 171.687C252.917 174.41 252.857 177.269 253.38 180.024L251.752 187.801L251.632 187.794L238.792 222.562C235.806 230.646 236.122 239.926 239.93 247.54C242.195 252.07 245.169 255.115 248.66 252.007C254.454 246.849 258.238 217.317 259.966 200.353L263.961 183.109C265.565 180.973 266.7 178.427 267.271 175.683C268.782 168.844 266.936 162.405 263.147 161.3Z" fill="#FFD9B6"/>
<path d="M239.54 149.791C240.438 146.653 242.211 143.905 243.005 140.73C244.058 136.514 246.301 145.867 246.52 141.488C246.936 133.165 257.992 111.755 264.303 107.643C270.615 103.53 274.24 104.77 280.671 108.633C280.671 108.633 283.792 108.861 287.678 111.065C291.564 113.269 295.062 116.799 296.574 121.466C297.772 125.165 297.639 129.227 298.039 133.147C299.155 144.068 304.483 154.454 303.339 165.37C302.982 168.776 301.855 172.298 299.432 174.301C297.008 176.305 293.092 176.087 291.497 173.187C290.952 172.198 290.722 171.024 290.255 169.983C289.789 168.942 288.946 167.972 287.927 168.004C286.396 168.053 285.617 170.413 286.221 172.03C286.825 173.647 288.243 174.624 289.575 175.492C286.403 177.132 282.468 176.621 279.694 174.21C276.92 171.799 275.422 167.587 275.932 163.634C276.651 158.063 283.715 159.216 284.547 153.666C285.153 149.625 287.28 142.865 286.701 138.82C286.121 134.774 283.339 139.672 286.27 137.335C283.045 139.121 276.146 126.901 272.77 125.532C269.393 124.163 266.53 121.199 264.995 117.483C261.414 123.447 258.264 121.828 256.981 128.922C255.699 136.017 256.885 152.135 262.166 156.096C260.052 157.753 258.367 160.122 257.376 162.832C256.814 164.367 256.45 166.047 255.517 167.322C253.736 169.757 250.448 169.905 247.827 168.881C244.577 167.612 241.799 164.823 240.267 161.294C238.734 157.765 238.467 153.537 239.54 149.791Z" fill="black"/>
<path d="M0 490.865C0 491.383 0.361657 491.798 0.812018 491.798H357.188C357.638 491.798 358 491.383 358 490.865C358 490.348 357.638 489.932 357.188 489.932H0.812018C0.361657 489.932 0 490.348 0 490.865Z" fill="black"/>
<path d="M231.86 0.783936H91.5251C75.6111 0.783936 62.7102 15.6063 62.7102 33.8905V457.568C62.7102 475.852 75.6111 490.675 91.5251 490.675H231.86C247.774 490.675 260.675 475.852 260.675 457.568V33.8905C260.675 15.6063 247.774 0.783936 231.86 0.783936Z" fill="white"/>
<path d="M231.86 491.458H91.5252C75.2605 491.458 62.028 476.255 62.028 457.568V33.8906C62.028 15.2034 75.2605 0 91.5252 0H231.86C248.125 0 261.357 15.2034 261.357 33.8906V457.568C261.357 476.255 248.125 491.458 231.86 491.458ZM91.5252 1.56792C76.0128 1.56792 63.3926 16.0677 63.3926 33.8906V457.568C63.3926 475.391 76.0128 489.89 91.5252 489.89H231.86C247.372 489.89 259.993 475.391 259.993 457.568V33.8906C259.993 16.0677 247.372 1.56792 231.86 1.56792H91.5252Z" fill="black"/>
<path d="M51.1139 74.1362C49.8819 74.1362 48.88 75.2873 48.88 76.7029V97.2359C48.88 98.6514 49.8819 99.8025 51.1139 99.8025C52.3459 99.8025 53.3478 98.6514 53.3478 97.2359V76.7029C53.3478 75.2873 52.3459 74.1362 51.1139 74.1362Z" fill="black"/>
<path d="M242.025 68.5662H185.618C183.226 68.5662 181.279 66.3298 181.279 63.581C181.279 60.8321 183.226 58.5957 185.618 58.5957H242.025C244.418 58.5957 246.364 60.8321 246.364 63.581C246.364 66.3298 244.418 68.5662 242.025 68.5662Z" fill="#E4E6EB"/>
<path d="M189.108 107.77H134.278C132.895 107.77 131.771 106.478 131.771 104.889C131.771 103.301 132.895 102.01 134.278 102.01H189.108C190.49 102.01 191.614 103.301 191.614 104.889C191.614 106.478 190.49 107.77 189.108 107.77Z" fill="#1877F2"/>
<path d="M53.2828 121.985C77.7395 121.985 97.5655 99.6865 97.5655 72.1792C97.5655 44.672 77.7395 22.373 53.2828 22.373C28.8261 22.373 9 44.672 9 72.1792C9 99.6865 28.8261 121.985 53.2828 121.985Z" fill="#1877F2"/>
<path d="M67.7661 47.1615C61.8706 59.4953 55.9752 71.8292 50.0798 84.163C46.3224 76.5355 42.5855 68.8944 38.8189 61.2728C37.5181 58.6406 33.9798 61.0081 35.2839 63.6469C39.6502 72.4821 43.9713 81.3466 48.3377 90.1817C49.0842 91.6924 51.1338 91.7275 51.8727 90.1817C58.3489 76.633 64.825 63.0843 71.3011 49.5356C72.5701 46.8808 69.036 44.5046 67.7661 47.1615Z" fill="white"/>
<path d="M111.611 11.4912H80.3069C80.19 11.4912 80.0952 11.6001 80.0952 11.7344V15.9214C80.0952 16.0557 80.19 16.1646 80.3069 16.1646H111.611C111.728 16.1646 111.822 16.0557 111.822 15.9214V11.7344C111.822 11.6001 111.728 11.4912 111.611 11.4912Z" fill="#E4E6EB"/>
<path d="M217.052 16.1645C218.85 16.1645 220.306 14.4906 220.306 12.4257C220.306 10.3609 218.85 8.68701 217.052 8.68701C215.255 8.68701 213.798 10.3609 213.798 12.4257C213.798 14.4906 215.255 16.1645 217.052 16.1645Z" fill="#E4E6EB"/>
<path d="M226.001 16.1645C227.798 16.1645 229.255 14.4906 229.255 12.4257C229.255 10.3609 227.798 8.68701 226.001 8.68701C224.204 8.68701 222.747 10.3609 222.747 12.4257C222.747 14.4906 224.204 16.1645 226.001 16.1645Z" fill="#E4E6EB"/>
<path d="M234.95 16.1645C236.747 16.1645 238.204 14.4906 238.204 12.4257C238.204 10.3609 236.747 8.68701 234.95 8.68701C233.153 8.68701 231.696 10.3609 231.696 12.4257C231.696 14.4906 233.153 16.1645 234.95 16.1645Z" fill="#E4E6EB"/>
<path d="M91.1836 123.188C91.1836 123.705 91.5453 124.121 91.9956 124.121H231.39C231.84 124.121 232.202 123.705 232.202 123.188C232.202 122.671 231.84 122.255 231.39 122.255H91.9956C91.5453 122.255 91.1836 122.671 91.1836 123.188Z" fill="black"/>
<path d="M218.022 196.513H134.37C132.987 196.513 131.863 195.22 131.863 193.632C131.863 192.044 132.987 190.752 134.37 190.752H218.022C219.405 190.752 220.529 192.044 220.529 193.632C220.529 195.22 219.405 196.513 218.022 196.513Z" fill="#1877F2"/>
<path d="M218.022 238.062H134.37C132.987 238.062 131.863 236.77 131.863 235.182C131.863 233.594 132.987 232.302 134.37 232.302H218.022C219.405 232.302 220.529 233.594 220.529 235.182C220.529 236.77 219.405 238.062 218.022 238.062Z" fill="#1877F2"/>
<path d="M218.022 279.612H134.37C132.987 279.612 131.863 278.32 131.863 276.732C131.863 275.144 132.987 273.852 134.37 273.852H218.022C219.405 273.852 220.529 275.144 220.529 276.732C220.529 278.32 219.405 279.612 218.022 279.612Z" fill="#1877F2"/>
<path d="M108.997 200.332C112.389 200.332 115.138 197.173 115.138 193.276C115.138 189.38 112.389 186.221 108.997 186.221C105.606 186.221 102.856 189.38 102.856 193.276C102.856 197.173 105.606 200.332 108.997 200.332Z" fill="#1877F2"/>
<path d="M108.315 205.036V203.468C113.394 203.468 117.526 198.72 117.526 192.884C117.526 187.049 113.394 182.301 108.315 182.301V180.733C114.147 180.733 118.891 186.184 118.891 192.884C118.891 199.585 114.147 205.036 108.315 205.036Z" fill="black"/>
<path d="M108.997 241.882C112.389 241.882 115.138 238.723 115.138 234.826C115.138 230.929 112.389 227.771 108.997 227.771C105.606 227.771 102.856 230.929 102.856 234.826C102.856 238.723 105.606 241.882 108.997 241.882Z" fill="#1877F2"/>
<path d="M108.315 246.585V245.018C113.394 245.018 117.526 240.27 117.526 234.434C117.526 228.598 113.394 223.851 108.315 223.851V222.283C114.147 222.283 118.891 227.734 118.891 234.434C118.891 241.135 114.147 246.585 108.315 246.585Z" fill="black"/>
<path d="M108.997 283.432C112.389 283.432 115.138 280.273 115.138 276.376C115.138 272.479 112.389 269.32 108.997 269.32C105.606 269.32 102.856 272.479 102.856 276.376C102.856 280.273 105.606 283.432 108.997 283.432Z" fill="#1877F2"/>
<path d="M108.315 288.136V286.568C113.394 286.568 117.526 281.82 117.526 275.984C117.526 270.148 113.394 265.401 108.315 265.401V263.833C114.147 263.833 118.891 269.284 118.891 275.984C118.891 282.685 114.147 288.136 108.315 288.136Z" fill="black"/>
<path d="M262.024 159.732C265.813 158.628 270.108 163.277 271.619 170.118C272.255 172.842 272.314 175.701 271.792 178.456L273.42 186.233L273.539 186.226L286.38 220.994C289.365 229.078 289.05 238.358 285.242 245.972C282.977 250.502 280.003 253.547 276.511 250.438C270.718 245.281 266.934 215.749 265.206 198.785L261.211 181.541C259.607 179.405 258.472 176.859 257.901 174.115C256.39 167.276 258.236 160.836 262.024 159.732Z" fill="#FFD9B6"/>
<path d="M276.61 178.784L262.245 190.517L269.428 242.489L278.436 255.875L288.93 251.705L291.998 227.137L288.388 203.377L276.61 178.784Z" fill="#1877F2"/>
</g>
<defs>
<clipPath id="clip0_6_44">
<rect width="358" height="492" fill="white"/>
</clipPath>
</defs>
</svg>
